<?xml version="1.0" encoding="utf-8"?>
<!-- Generator: Adobe Illustrator 23.0.1, SVG Export Plug-In . SVG Version: 6.00 Build 0)  -->
<svg version="1.1" id="Layer_1" xmlns="http://www.w3.org/2000/svg" xmlns:xlink="http://www.w3.org/1999/xlink" x="0px" y="0px"
	 viewBox="0 0 792 612" style="enable-background:new 0 0 792 612;" xml:space="preserve">
<style type="text/css">
	.st0{fill:#606161;}
	.st1{fill:#231F20;}
	.st2{fill:#FFFFFF;}
</style>
<circle class="st0" cx="275.85" cy="229.58" r="25.16"/>
<g>
	<circle class="st0" cx="460.5" cy="411.37" r="43.94"/>
</g>
<circle class="st0" cx="504.66" cy="189.83" r="35.08"/>
<path class="st1" d="M504.66,233.09c23.86,0,43.26-19.41,43.26-43.26s-19.41-43.26-43.26-43.26s-43.26,19.41-43.26,43.26
	c0,7.07,1.72,13.75,4.74,19.65l-10.06,7.58c-15.09-16.51-36.8-26.89-60.88-26.89c-33.66,0-62.66,20.28-75.47,49.25l-12.8-4.73
	c0.27-1.66,0.42-3.37,0.42-5.11c0-17.36-14.12-31.49-31.49-31.49s-31.49,14.12-31.49,31.49s14.12,31.49,31.49,31.49
	c11.38,0,21.36-6.06,26.89-15.13l12.94,4.78c-1.93,6.99-2.99,14.34-2.99,21.94c0,45.49,37,82.49,82.49,82.49
	c8.95,0,17.56-1.45,25.63-4.1l7.41,15.76c-13.79,10.01-22.78,26.25-22.78,44.55c0,30.35,24.69,55.04,55.04,55.04
	c30.35,0,55.04-24.69,55.04-55.04c0-30.35-24.69-55.04-55.04-55.04c-4.92,0-9.68,0.66-14.22,1.87l-7.35-15.64
	c23.26-14.6,38.76-40.47,38.76-69.9c0-16.38-4.82-31.65-13.08-44.5l9.84-7.41C482.24,228.37,492.91,233.09,504.66,233.09z
	 M275.85,256.24c-14.7,0-26.66-11.96-26.66-26.66c0-14.7,11.96-26.66,26.66-26.66s26.66,11.96,26.66,26.66
	C302.52,244.28,290.56,256.24,275.85,256.24z M460.5,366c25.02,0,45.37,20.35,45.37,45.37c0,25.02-20.35,45.37-45.37,45.37
	s-45.37-20.35-45.37-45.37C415.13,386.35,435.48,366,460.5,366z M469.73,272.66c0,41.1-33.44,74.53-74.53,74.53
	c-41.1,0-74.53-33.44-74.53-74.53c0-41.1,33.44-74.53,74.53-74.53C436.29,198.12,469.73,231.56,469.73,272.66z M504.66,153.33
	c20.12,0,36.5,16.37,36.5,36.5s-16.37,36.5-36.5,36.5c-20.12,0-36.5-16.37-36.5-36.5S484.54,153.33,504.66,153.33z"/>
<circle class="st0" cx="395.19" cy="272.66" r="72.99"/>
<g>
	<path class="st1" d="M504.66,221.73c-2.2,0-3.98-1.78-3.98-3.98s1.78-3.98,3.98-3.98c13.2,0,23.95-10.74,23.95-23.95
		c0-2.2,1.78-3.98,3.98-3.98c2.2,0,3.98,1.78,3.98,3.98C536.56,207.42,522.25,221.73,504.66,221.73z"/>
</g>
<g>
	<path class="st2" d="M504.66,157.92c2.2,0,3.98,1.78,3.98,3.98s-1.78,3.98-3.98,3.98c-13.2,0-23.95,10.74-23.95,23.95
		c0,2.2-1.78,3.98-3.98,3.98c-2.2,0-3.98-1.78-3.98-3.98C472.76,172.23,487.07,157.92,504.66,157.92z"/>
</g>
<g>
	<path class="st1" d="M394.46,339.91c-2.21,0-4-1.79-4-4s1.79-4,4-4c23.99,0,45.21-14.41,54.06-36.7c0.82-2.05,3.14-3.06,5.19-2.24
		c2.05,0.82,3.06,3.14,2.24,5.19C445.89,323.52,421.75,339.91,394.46,339.91z"/>
</g>
<g>
	<path class="st2" d="M348.95,235.46c-0.98,0-1.95-0.35-2.72-1.07c-1.62-1.5-1.71-4.04-0.2-5.65c12.48-13.41,30.13-21.1,48.44-21.1
		c2.21,0,4,1.79,4,4s-1.79,4-4,4c-16.09,0-31.61,6.76-42.58,18.55C351.1,235.03,350.03,235.46,348.95,235.46z"/>
</g>
<g>
	<g>
		<g>
			<path class="st2" d="M385.39,291.66c-0.01,2.92-0.05,3.95-0.8,5.48c-0.9,1.83-2.99,3.15-5.47,3.14c-2.48-0.01-4.6-1.34-5.53-3.17
				c-0.78-1.54-0.84-2.56-0.89-5.48c-0.09-5.52-0.14-11.05-0.15-16.57c-1.98,3.43-3.95,6.85-5.87,10.27
				c-1.34,2.4-2.65,3.55-5.4,3.53c-2.75-0.03-4.13-1.2-5.58-3.6c-2.07-3.42-4.11-6.82-6.11-10.21c0.02,5.45,0.17,10.89,0.45,16.34
				c0.15,2.88,0.18,3.89-0.47,5.38c-0.77,1.78-2.75,3.02-5.24,2.95c-2.48-0.07-4.71-1.42-5.77-3.23c-0.88-1.51-1.02-2.51-1.23-5.35
				c-0.84-11.71-0.82-23.42,0.05-35.14c0.2-2.63,0.66-4.44,2.34-6.02c1.25-1.17,2.65-1.75,4.35-1.8c1.49-0.04,2.53,0.18,3.57,0.9
				c1.18,0.79,2.01,2.03,2.82,3.53c3.29,6.23,6.88,12.53,10.6,18.88c3.78-6.36,7.67-12.76,11.48-19.17
				c0.92-1.54,1.88-2.82,3.14-3.67c1.12-0.77,2.18-1.03,3.67-1.04c1.7-0.01,3.05,0.54,4.19,1.71c1.53,1.57,1.83,3.44,1.84,6.14
				L385.39,291.66z"/>
		</g>
		<g>
			<path class="st2" d="M409.31,280.56c-1.45,0.01-2.89,0.01-4.34,0.02c-0.04,3.66-0.12,7.32-0.24,10.97
				c-0.1,2.91-0.18,3.92-0.99,5.46c-0.97,1.83-3.12,3.17-5.6,3.2c-2.48,0.03-4.54-1.27-5.41-3.09c-0.72-1.53-0.74-2.55-0.71-5.47
				c0.15-11.94,0.15-23.89-0.01-35.83c-0.03-1.9-0.06-4.27,1.66-6.05c1.71-1.78,4.01-1.75,5.86-1.73c4.16,0.05,8.31,0.11,12.47,0.2
				c11.16,0.27,18.1,8.45,18.43,16.72c0.21,5.35-2.74,10.35-8.16,13.17c2,3.51,3.92,7.01,5.75,10.47c1.3,2.46,1.64,3.55,1.52,5.11
				c-0.18,2.13-1.42,3.83-3.51,5.03c-1.05,0.6-2.14,0.95-3.21,0.99c-3.19,0.09-4.51-2.38-5.79-4.88
				C414.59,290.12,412,285.35,409.31,280.56z M412.22,269.99c3.51,0.01,5.53-2.5,5.45-5.16c-0.08-2.7-2.22-5.28-5.69-5.32
				c-2.39-0.03-4.78-0.05-7.17-0.07c0.09,3.51,0.15,7.02,0.18,10.54C407.4,269.97,409.81,269.98,412.22,269.99z"/>
		</g>
	</g>
	<g>
		<g>
			<path class="st2" d="M441.94,264.32c0.01,2.19,1.72,4.27,4.85,4.26c1.44,0,2.89-0.47,4.04-1.23c1.2-0.81,1.96-1.07,2.85-1.08
				c1.5-0.02,3.22,1.42,3.17,3.27c-0.04,1.27-0.82,2.43-2.62,3.73c-1.96,1.41-4.54,2.16-7.55,2.17c-5.69,0.05-12.65-2.57-12.8-13.77
				c0.06-8.46,5.3-13.72,12.07-13.77c7.23,0.06,11.68,5.68,12.06,11.83c0.06,1.26-0.12,2.6-1.1,3.56c-0.98,0.96-2.23,1-3.38,1.01
				C449.66,264.33,445.8,264.34,441.94,264.32z M449.95,258.88c0-0.65-0.11-1.4-0.46-2.1c-0.56-1.15-1.6-2.11-3.54-2.12
				c-1.94,0-3.01,0.96-3.54,2.12c-0.33,0.7-0.46,1.45-0.46,2.1C444.61,258.87,447.28,258.87,449.95,258.88z"/>
		</g>
	</g>
</g>
<g>
	<path class="st1" d="M460.5,451.33c-2.75,0-4.98-2.23-4.98-4.98s2.23-4.98,4.98-4.98c16.54,0,29.99-13.46,29.99-29.99
		c0-2.75,2.23-4.98,4.98-4.98c2.75,0,4.98,2.23,4.98,4.98C500.46,433.4,482.53,451.33,460.5,451.33z"/>
</g>
<g>
	<path class="st2" d="M460.5,371.41c2.75,0,4.98,2.23,4.98,4.98s-2.23,4.98-4.98,4.98c-16.54,0-29.99,13.46-29.99,29.99
		c0,2.75-2.23,4.98-4.98,4.98s-4.98-2.23-4.98-4.98C420.53,389.33,438.46,371.41,460.5,371.41z"/>
</g>
<g>
	<path class="st1" d="M275.85,252.6c-1.59,0-2.87-1.29-2.87-2.87s1.29-2.87,2.87-2.87c9.53,0,17.28-7.75,17.28-17.28
		c0-1.59,1.29-2.87,2.87-2.87c1.59,0,2.87,1.29,2.87,2.87C298.87,242.27,288.55,252.6,275.85,252.6z"/>
</g>
<g>
	<path class="st2" d="M275.85,206.56c1.59,0,2.87,1.29,2.87,2.87s-1.29,2.87-2.87,2.87c-9.53,0-17.28,7.75-17.28,17.28
		c0,1.59-1.29,2.87-2.87,2.87c-1.59,0-2.87-1.29-2.87-2.87C252.84,216.89,263.16,206.56,275.85,206.56z"/>
</g>
</svg>
