{"asset":{"generator":"Khronos glTF Blender I/O v1.0.11","version":"2.0"},"scene":0,"scenes":[{"name":"Scene","nodes":[3]}],"nodes":[{"mesh":0,"name":"BigHand","translation":[0,0.029999999329447746,0]},{"mesh":1,"name":"LittleHand","translation":[0,0.029999999329447746,0]},{"mesh":2,"name":"Ticks"},{"children":[0,1,2],"mesh":3,"name":"Clock"}],"animations":[{"channels":[{"sampler":0,"target":{"node":0,"path":"rotation"}},{"sampler":1,"target":{"node":1,"path":"rotation"}}],"samplers":[{"input":16,"interpolation":"LINEAR","output":17},{"input":16,"interpolation":"LINEAR","output":18}]}],"materials":[{"doubleSided":true,"name":"Accent","pbrMetallicRoughness":{"baseColorFactor":[0.800000011920929,0.800000011920929,0.800000011920929,1],"metallicFactor":0,"roughnessFactor":0.5}},{"doubleSided":true,"name":"Back","pbrMetallicRoughness":{"baseColorFactor":[0.005604716017842293,0.005604716017842293,0.005604716017842293,1],"metallicFactor":0,"roughnessFactor":0.5}}],"meshes":[{"name":"Cube.001","primitives":[{"attributes":{"POSITION":0,"NORMAL":1,"TEXCOORD_0":2},"indices":3}]},{"name":"Cube.002","primitives":[{"attributes":{"POSITION":4,"NORMAL":5,"TEXCOORD_0":6},"indices":7}]},{"name":"Cylinder.001","primitives":[{"attributes":{"POSITION":8,"NORMAL":9,"TEXCOORD_0":10},"indices":11,"material":0}]},{"name":"Cylinder","primitives":[{"attributes":{"POSITION":12,"NORMAL":13,"TEXCOORD_0":14},"indices":15,"material":1}]}],"accessors":[{"bufferView":0,"componentType":5126,"count":24,"max":[0.0353553406894207,0.0023418068885803223,0.0353553406894207],"min":[-0.0353553406894207,-0.0023418068885803223,-0.30878475308418274],"type":"VEC3"},{"bufferView":1,"componentType":5126,"count":24,"type":"VEC3"},{"bufferView":2,"componentType":5126,"count":24,"type":"VEC2"},{"bufferView":3,"componentType":5123,"count":36,"type":"SCALAR"},{"bufferView":4,"componentType":5126,"count":32,"max":[0.012702726759016514,0.005262686870992184,0.012702726759016514],"min":[-0.012702726759016514,-0.005262686870992184,-0.44124501943588257],"type":"VEC3"},{"bufferView":5,"componentType":5126,"count":32,"type":"VEC3"},{"bufferView":6,"componentType":5126,"count":32,"type":"VEC2"},{"bufferView":7,"componentType":5123,"count":48,"type":"SCALAR"},{"bufferView":8,"componentType":5126,"count":144,"max":[0.6000000238418579,0.004999999888241291,0.6000000238418579],"min":[-0.6000000238418579,-0.004999999888241291,-0.6000000238418579],"type":"VEC3"},{"bufferView":9,"componentType":5126,"count":144,"type":"VEC3"},{"bufferView":10,"componentType":5126,"count":144,"type":"VEC2"},{"bufferView":11,"componentType":5123,"count":276,"type":"SCALAR"},{"bufferView":12,"componentType":5126,"count":192,"max":[0.5,0.02500000037252903,0.5],"min":[-0.5,-0.02500000037252903,-0.5],"type":"VEC3"},{"bufferView":13,"componentType":5126,"count":192,"type":"VEC3"},{"bufferView":14,"componentType":5126,"count":192,"type":"VEC2"},{"bufferView":15,"componentType":5123,"count":372,"type":"SCALAR"},{"bufferView":16,"componentType":5126,"count":1801,"max":[60.03333333333333],"min":[0.03333333333333333],"type":"SCALAR"},{"bufferView":17,"componentType":5126,"count":1801,"type":"VEC4"},{"bufferView":18,"componentType":5126,"count":1801,"type":"VEC4"}],"bufferViews":[{"buffer":0,"byteLength":288,"byteOffset":0},{"buffer":0,"byteLength":288,"byteOffset":288},{"buffer":0,"byteLength":192,"byteOffset":576},{"buffer":0,"byteLength":72,"byteOffset":768},{"buffer":0,"byteLength":384,"byteOffset":840},{"buffer":0,"byteLength":384,"byteOffset":1224},{"buffer":0,"byteLength":256,"byteOffset":1608},{"buffer":0,"byteLength":96,"byteOffset":1864},{"buffer":0,"byteLength":1728,"byteOffset":1960},{"buffer":0,"byteLength":1728,"byteOffset":3688},{"buffer":0,"byteLength":1152,"byteOffset":5416},{"buffer":0,"byteLength":552,"byteOffset":6568},{"buffer":0,"byteLength":2304,"byteOffset":7120},{"buffer":0,"byteLength":2304,"byteOffset":9424},{"buffer":0,"byteLength":1536,"byteOffset":11728},{"buffer":0,"byteLength":744,"byteOffset":13264},{"buffer":0,"byteLength":7204,"byteOffset":14008},{"buffer":0,"byteLength":28816,"byteOffset":21212},{"buffer":0,"byteLength":28816,"byteOffset":50028}],"buffers":[{"byteLength":78844,"uri":"data:application/octet-stream;base64,"}]}