{"asset":{"generator":"Khronos glTF Blender I/O v1.0.11","version":"2.0"},"scene":0,"scenes":[{"name":"Scene","nodes":[3]}],"nodes":[{"mesh":0,"name":"BigHand","translation":[0,0.029999999329447746,0]},{"mesh":1,"name":"LittleHand","translation":[0,0.029999999329447746,0]},{"mesh":2,"name":"Ticks"},{"children":[0,1,2],"mesh":3,"name":"Clock"}],"animations":[{"channels":[{"sampler":0,"target":{"node":0,"path":"rotation"}},{"sampler":1,"target":{"node":1,"path":"rotation"}}],"samplers":[{"input":12,"interpolation":"LINEAR","output":13},{"input":14,"interpolation":"LINEAR","output":15}]}],"materials":[{"doubleSided":true,"name":"Accent","pbrMetallicRoughness":{"baseColorFactor":[0.800000011920929,0.800000011920929,0.800000011920929,1],"metallicFactor":0,"roughnessFactor":0.5}},{"doubleSided":true,"name":"Back","pbrMetallicRoughness":{"baseColorFactor":[0.005604716017842293,0.005604716017842293,0.005604716017842293,1],"metallicFactor":0,"roughnessFactor":0.5}}],"meshes":[{"name":"Cube.001","primitives":[{"attributes":{"POSITION":0,"NORMAL":1},"indices":2}]},{"name":"Cube.002","primitives":[{"attributes":{"POSITION":3,"NORMAL":4},"indices":5}]},{"name":"Cylinder.001","primitives":[{"attributes":{"POSITION":6,"NORMAL":7},"indices":8,"material":0}]},{"name":"Cylinder","primitives":[{"attributes":{"POSITION":9,"NORMAL":10},"indices":11,"material":1}]}],"accessors":[{"bufferView":0,"componentType":5126,"count":24,"max":[0.0353553406894207,0.0023418068885803223,0.0353553406894207],"min":[-0.0353553406894207,-0.0023418068885803223,-0.30878475308418274],"type":"VEC3"},{"bufferView":1,"componentType":5126,"count":24,"type":"VEC3"},{"bufferView":2,"componentType":5123,"count":36,"type":"SCALAR"},{"bufferView":3,"componentType":5126,"count":32,"max":[0.012702726759016514,0.005262686870992184,0.012702726759016514],"min":[-0.012702726759016514,-0.005262686870992184,-0.44124501943588257],"type":"VEC3"},{"bufferView":4,"componentType":5126,"count":32,"type":"VEC3"},{"bufferView":5,"componentType":5123,"count":48,"type":"SCALAR"},{"bufferView":6,"componentType":5126,"count":144,"max":[0.6000000238418579,0.004999999888241291,0.6000000238418579],"min":[-0.6000000238418579,-0.004999999888241291,-0.6000000238418579],"type":"VEC3"},{"bufferView":7,"componentType":5126,"count":144,"type":"VEC3"},{"bufferView":8,"componentType":5123,"count":276,"type":"SCALAR"},{"bufferView":9,"componentType":5126,"count":192,"max":[0.5,0.02500000037252903,0.5],"min":[-0.5,-0.02500000037252903,-0.5],"type":"VEC3"},{"bufferView":10,"componentType":5126,"count":192,"type":"VEC3"},{"bufferView":11,"componentType":5123,"count":372,"type":"SCALAR"},{"bufferView":12,"componentType":5126,"count":4,"max":[60.03333333333333],"min":[0.03333333333333333],"type":"SCALAR"},{"bufferView":13,"componentType":5126,"count":4,"type":"VEC4"},{"bufferView":14,"componentType":5126,"count":181,"max":[60.03333333333333],"min":[0.03333333333333333],"type":"SCALAR"},{"bufferView":15,"componentType":5126,"count":181,"type":"VEC4"}],"bufferViews":[{"buffer":0,"byteLength":288,"byteOffset":0},{"buffer":0,"byteLength":288,"byteOffset":288},{"buffer":0,"byteLength":72,"byteOffset":576},{"buffer":0,"byteLength":384,"byteOffset":648},{"buffer":0,"byteLength":384,"byteOffset":1032},{"buffer":0,"byteLength":96,"byteOffset":1416},{"buffer":0,"byteLength":1728,"byteOffset":1512},{"buffer":0,"byteLength":1728,"byteOffset":3240},{"buffer":0,"byteLength":552,"byteOffset":4968},{"buffer":0,"byteLength":2304,"byteOffset":5520},{"buffer":0,"byteLength":2304,"byteOffset":7824},{"buffer":0,"byteLength":744,"byteOffset":10128},{"buffer":0,"byteLength":16,"byteOffset":10872},{"buffer":0,"byteLength":64,"byteOffset":10888},{"buffer":0,"byteLength":724,"byteOffset":10952},{"buffer":0,"byteLength":2896,"byteOffset":11676}],"buffers":[{"byteLength":14572,"uri":"data:application/octet-stream;base64,"}]}